<?xml version="1.0" encoding="utf-8"?>
<!-- Generator: Adobe Illustrator 21.1.0, SVG Export Plug-In . SVG Version: 6.00 Build 0)  -->
<svg version="1.1" id="Calque_1" xmlns="http://www.w3.org/2000/svg" xmlns:xlink="http://www.w3.org/1999/xlink" x="0px" y="0px"
	 viewBox="0 0 224.7 44.3" style="enable-background:new 0 0 224.7 44.3;" xml:space="preserve">
<style type="text/css">
	.st0{fill:#ED6E25;}
</style>
<path class="st0" d="M74,39.1v-2c-1.3,1.6-2.8,2.2-5,2.2c-0.6,0-1.2-0.1-1.8-0.2s-1.1-0.3-1.7-0.6c-6.2-3.2-6.2-11.9-2.7-17.3
	c0.7-0.9,1.6-1.6,2.7-2.2c0.5-0.3,1.1-0.5,1.7-0.6c0.6-0.1,1.2-0.2,1.8-0.2c2.2,0,3.6,0.6,5,2.2c0.4-0.9,1.3-1.8,2.7-1.8
	c1.7,0,2.9,1.3,2.9,3v17.6h-5.7C74,39.2,74,39.1,74,39.1z M65.9,28.9c-0.1,2.3,1.2,4.6,3.9,4.8c0.6,0,1.2-0.1,1.7-0.4
	c1.5-0.7,2.3-2.5,2.3-4.6s-0.8-3.8-2.3-4.6c-0.5-0.2-1.1-0.4-1.7-0.4C66.9,24,65.8,26.6,65.9,28.9L65.9,28.9z"/>
<path class="st0" d="M104.8,39.1V26.6c0-1.8-1-3.6-2.9-3.6S99,24.7,99,26.6v12.5h-5.9V26.6c0-1.8-1-3.6-2.9-3.6s-2.9,1.7-2.9,3.6
	v12.5h-5.7V21.5c0-1.7,1.2-3,2.9-3c1.5,0,2.5,1,2.9,1.8c0.9-1.4,2.9-2.2,5-2.2c1.7,0,4,0.6,5.4,2.4c1.4-1,3.1-2.4,5.7-2.4
	c4.1,0,7.2,2.1,7.2,6.9v14.1L104.8,39.1L104.8,39.1z"/>
<path class="st0" d="M152.8,39.1V26.6c0-1.8-1-3.6-2.9-3.6c-1.9,0-2.9,1.7-2.9,3.6v12.5h-5.9V26.6c0-1.8-1-3.6-2.9-3.6
	c-1.9,0-2.9,1.7-2.9,3.6v12.5h-5.7V21.5c0-1.7,1.2-3,2.9-3c1.5,0,2.5,1,2.9,1.8c0.9-1.4,2.9-2.2,5-2.2c1.7,0,4,0.6,5.4,2.4
	c1.4-1,3.1-2.4,5.7-2.4c4.1,0,7.2,2.1,7.2,6.9v14.1L152.8,39.1L152.8,39.1z"/>
<path class="st0" d="M55,9.8c2.1,0,3.7,1.8,3.3,4c-0.2,1.4-1.4,2.5-2.7,2.7c-2.2,0.4-4-1.3-4-3.3C51.6,11.3,53.2,9.8,55,9.8L55,9.8z
	 M52.2,39.1l0-17.6c0-1.4,1-2.7,2.4-2.9c2-0.3,3.4,1.1,3.4,3v17.6L52.2,39.1z"/>
<path class="st0" d="M183.1,39.1v-2c-1.3,1.6-2.8,2.2-5,2.2c-0.6,0-1.2-0.1-1.8-0.2c-0.6-0.1-1.1-0.3-1.7-0.6
	c-6.2-3.2-6.2-11.9-2.7-17.3c0.7-0.9,1.6-1.6,2.7-2.2c0.5-0.3,1.1-0.5,1.7-0.6s1.2-0.2,1.8-0.2c2.2,0,3.6,0.6,5,2.2
	c0.4-0.9,1.3-1.8,2.7-1.8c1.7,0,2.9,1.3,2.9,3v17.6H183C183.1,39.2,183.1,39.1,183.1,39.1z M175,28.9c-0.1,2.3,1.2,4.6,3.9,4.8
	c0.6,0,1.2-0.1,1.7-0.4c1.5-0.7,2.3-2.5,2.3-4.6s-0.8-3.8-2.3-4.6c-0.5-0.2-1.1-0.4-1.7-0.4C176,24,174.9,26.6,175,28.9L175,28.9z"
	/>
<path class="st0" d="M213.9,39.1V26.6c0-1.8-1-3.6-2.9-3.6c-1.9,0-2.9,1.7-2.9,3.6v12.5h-5.9V26.6c0-1.8-1-3.6-2.9-3.6
	c-1.9,0-2.9,1.7-2.9,3.6v12.5h-5.7V21.5c0-1.7,1.2-3,2.9-3c1.5,0,2.5,1,2.9,1.8c0.9-1.4,2.9-2.2,5-2.2c1.7,0,4,0.6,5.4,2.4
	c1.4-1,3.1-2.4,5.7-2.4c4.1,0,7.2,2.1,7.2,6.9v14.1L213.9,39.1L213.9,39.1z"/>
<path class="st0" d="M164.1,9.8c2.1,0,3.7,1.8,3.3,4c-0.2,1.4-1.4,2.5-2.7,2.7c-2.2,0.4-4-1.3-4-3.3C160.7,11.3,162.3,9.8,164.1,9.8
	L164.1,9.8z M161.3,39.1V21.5c0-1.4,1-2.7,2.4-2.9c2-0.3,3.4,1.1,3.4,3v17.6L161.3,39.1z"/>
<g>
	<path class="st0" d="M21.5,23c-1.9,0-2.9,1.7-2.9,3.6v12.5h5.8V26.5C24.5,24.7,23.5,23,21.5,23z"/>
	<path class="st0" d="M33.3,23c-1.9,0-2.9,1.7-2.9,3.6v12.5h5.9V26.5C36.2,24.7,35.2,23,33.3,23z"/>
	<path class="st0" d="M49.1,17.4c-0.9,0.2-1.8,0.4-2.7,0.4c-0.5,0-0.9-0.1-1.4-0.2c-1.4-0.3-2.6-1-3.6-2.1c-0.4-0.5-0.8-1-1.1-1.5
		c-2.4,0.7-5.3,0-7-2c-1-1.2-1.6-2.6-1.7-4.2C30,8.7,28,8.4,26.7,7c-0.1-0.2-0.3-0.3-0.4-0.5c-1.4,1.4-3.3,2.3-5.5,2.3
		c-3,0-5.7-1.8-6.9-4.5c-3.2,0.4-6,2.6-7.2,5.5c-0.3,0.5-0.5,1.1-0.6,1.7C4.8,20.7,4.5,29.9,6,39h7.1V21.4c0-1.7,1.2-3,2.9-3
		c1.5,0,2.5,1,2.9,1.8c0.9-1.4,2.9-2.2,5-2.2c1.7,0,4,0.6,5.4,2.4c1.4-1,3.1-2.4,5.7-2.4c4.1,0,7.3,2.1,7.3,6.9V39h6.9
		C49.8,31.7,49.8,24.6,49.1,17.4z"/>
</g>
<path class="st0" d="M115.7,31.5c-1.4,0-2.7-1-2.9-2.4c-0.3-2,1.1-3.4,3-3.4l9,0c1.4,0,2.7,1,2.9,2.4c0.3,2-1.1,3.4-3,3.4
	L115.7,31.5z"/>
</svg>
