<?xml version="1.0" encoding="utf-8"?>
<!-- Generator: Adobe Illustrator 22.0.1, SVG Export Plug-In . SVG Version: 6.00 Build 0)  -->
<svg version="1.1" id="Layer_1" xmlns="http://www.w3.org/2000/svg" xmlns:xlink="http://www.w3.org/1999/xlink" x="0px" y="0px"
	 viewBox="0 0 163 229.3" style="enable-background:new 0 0 163 229.3;" xml:space="preserve">
<style type="text/css">
	.st0{fill-rule:evenodd;clip-rule:evenodd;fill:#FFFFFF;}
</style>
<path class="st0" d="M162.1,81.1c0,0.1,0,0.3,0,0.4c0,0.2,0,0.3,0,0.5c0,0.2,0,0.4,0,0.6c0,0.2,0,0.3,0,0.5c0,0.1,0,0.2,0,0.4
	c0,0.2,0,0.5,0,0.7c0,0.2,0,0.3,0,0.5c0,0.1,0,0.3,0,0.4c0,0.2,0,0.3,0,0.5c-0.6,11.3-3.2,21.8-8,31.3c-1.1,2.2-2.3,4.4-3.6,6.5
	c-0.8,1.1-1.5,2.3-2.2,3.4L81.8,229l-0.2-0.3L14.8,127c-0.9-1.2-1.7-2.5-2.4-3.7C4.6,110.9,0.6,96.8,0.6,81.1c0-0.4,0-0.8,0-1.2
	c0-3.4,0.6-8.4,1.9-14.9l0.2-0.9c0.5-2.4,1-4.8,1.8-7.2c3.7-12.2,10.4-23.1,20.1-32.9C40.3,8.4,59.3,0.5,81.5,0.5h0.2
	c4.6,0,9.1,0.4,13.5,1c-1.6,3.7-2.4,7.7-2.4,12.1c0,8.4,2.9,15.5,8.8,21.4c5.9,5.9,13,8.9,21.3,8.9c8.4,0,15.5-3,21.4-8.9
	c0.6-0.6,1.3-1.3,1.9-2c5.6,7.3,9.7,15.3,12.4,24c0.9,3.1,1.7,6.3,2.2,9.5c0.8,4.4,1.2,8.8,1.2,13.4
	C162.1,80.3,162.1,80.7,162.1,81.1z M62.8,59.1c-4,4.1-6.7,8.8-7.9,14c-2.4-1.1-5.1-1.6-8-1.6c-5.4,0-10.1,1.9-13.9,5.8
	c-3.8,3.8-5.7,8.5-5.7,13.9c0,5.5,1.9,10.1,5.7,13.9c3.8,3.9,8.5,5.8,13.9,5.8c0.2,0,0.4,0,0.5,0l74.8,0v0c4.1,0,7.6-1.4,10.4-4.3
	c2.9-2.9,4.3-6.4,4.3-10.5c0-4.1-1.4-7.5-4.3-10.4c-2.8-2.9-6.3-4.3-10.4-4.3c-2.9,0-5.5,0.8-7.9,2.2c0.1-1,0.1-2,0.1-3
	c0-8.3-3-15.5-8.9-21.4c-5.9-5.8-13-8.8-21.3-8.8C75.8,50.3,68.7,53.3,62.8,59.1z"/>
</svg>
